<svg width="152" height="152" viewBox="0 0 152 152" fill="none" xmlns="http://www.w3.org/2000/svg">
<path d="M37.7647 26.658H103.451L111.294 39.9805H54.9216L34.3333 75.507L54.9216 111.527H96.0981L112.765 82.9083L67.6667 82.4149L62.7647 75.507L67.6667 69.5859H127.961L131.882 75.507L111.294 111.527H142.667L150.02 91.2965L137.765 83.8952V68.1056L151 60.2108L137.765 34.0594L125.51 37.0199L114.235 25.6712L118.157 13.3356L91.1961 1L83.8432 13.3356H67.6667L61.2941 1L33.8431 11.3619L37.7647 26.658Z" fill="#232323" stroke="white" stroke-width="1.5"/>
<path d="M8.84314 39.9795H40.2157L19.6275 75.506L47.5686 125.342H114.235L118.647 138.664L91.1961 151L83.8432 138.171H67.6667L59.8236 151L33.8432 138.664L37.2745 125.342L26 114.486L12.2745 117.447L2.47059 92.2824L13.7451 84.3876V67.1178L1 58.2362L8.84314 39.9795Z" fill="white" stroke="#232323"/>
</svg>
